<mxfile host="app.diagrams.net" modified="2023-09-11T02:28:28.674Z" agent="Mozilla/5.0 (Windows NT 10.0; Win64; x64) AppleWebKit/537.36 (KHTML, like Gecko) Chrome/116.0.0.0 Safari/537.36" etag="kacbAPczBO_T6pnq0hse" version="21.7.4" type="github">
  <diagram name="Página-1" id="ZbIvkw-Jyo-QXuJjpsvK">
    <mxGraphModel dx="2074" dy="758" grid="1" gridSize="10" guides="1" tooltips="1" connect="1" arrows="1" fold="1" page="1" pageScale="1" pageWidth="827" pageHeight="1169" math="0" shadow="0">
      <root>
        <mxCell id="0" />
        <mxCell id="1" parent="0" />
        <mxCell id="2IS8mfIbqdw9v7S4wZBt-6" value="Pasta de Documentos" style="whiteSpace=wrap;html=1;align=center;fontSize=14;" vertex="1" parent="1">
          <mxGeometry x="120" y="160" width="170" height="80" as="geometry" />
        </mxCell>
        <mxCell id="2IS8mfIbqdw9v7S4wZBt-11" value="PossuiFichaDeCirculacao" style="shape=rhombus;perimeter=rhombusPerimeter;whiteSpace=wrap;html=1;align=center;" vertex="1" parent="1">
          <mxGeometry x="115" y="370" width="180" height="90" as="geometry" />
        </mxCell>
        <mxCell id="2IS8mfIbqdw9v7S4wZBt-12" value="Ficha de Circulação" style="whiteSpace=wrap;html=1;align=center;fontSize=14;" vertex="1" parent="1">
          <mxGeometry x="120" y="585" width="170" height="80" as="geometry" />
        </mxCell>
        <mxCell id="2IS8mfIbqdw9v7S4wZBt-13" value="PossuiFolhaDeIndexacao" style="whiteSpace=wrap;html=1;align=center;fontSize=14;" vertex="1" parent="1">
          <mxGeometry x="750" y="165" width="170" height="80" as="geometry" />
        </mxCell>
        <mxCell id="2IS8mfIbqdw9v7S4wZBt-14" value="PossuiFichaDeCirculacao" style="shape=rhombus;perimeter=rhombusPerimeter;whiteSpace=wrap;html=1;align=center;" vertex="1" parent="1">
          <mxGeometry x="430" y="150" width="180" height="90" as="geometry" />
        </mxCell>
        <mxCell id="2IS8mfIbqdw9v7S4wZBt-16" value="" style="endArrow=none;html=1;rounded=0;entryX=0.5;entryY=1;entryDx=0;entryDy=0;exitX=0.5;exitY=0;exitDx=0;exitDy=0;" edge="1" parent="1" source="2IS8mfIbqdw9v7S4wZBt-11" target="2IS8mfIbqdw9v7S4wZBt-6">
          <mxGeometry relative="1" as="geometry">
            <mxPoint x="330" y="390" as="sourcePoint" />
            <mxPoint x="490" y="390" as="targetPoint" />
          </mxGeometry>
        </mxCell>
        <mxCell id="2IS8mfIbqdw9v7S4wZBt-19" value="1:N" style="edgeLabel;html=1;align=center;verticalAlign=middle;resizable=0;points=[];fontSize=14;" vertex="1" connectable="0" parent="2IS8mfIbqdw9v7S4wZBt-16">
          <mxGeometry x="0.7524" y="2" relative="1" as="geometry">
            <mxPoint as="offset" />
          </mxGeometry>
        </mxCell>
        <mxCell id="2IS8mfIbqdw9v7S4wZBt-20" value="" style="endArrow=none;html=1;rounded=0;exitX=0.5;exitY=1;exitDx=0;exitDy=0;" edge="1" parent="1" source="2IS8mfIbqdw9v7S4wZBt-11">
          <mxGeometry relative="1" as="geometry">
            <mxPoint x="330" y="390" as="sourcePoint" />
            <mxPoint x="205" y="585" as="targetPoint" />
          </mxGeometry>
        </mxCell>
        <mxCell id="2IS8mfIbqdw9v7S4wZBt-21" value="1:1" style="edgeLabel;html=1;align=center;verticalAlign=middle;resizable=0;points=[];fontSize=14;" vertex="1" connectable="0" parent="2IS8mfIbqdw9v7S4wZBt-20">
          <mxGeometry x="0.808" y="-2" relative="1" as="geometry">
            <mxPoint y="-3" as="offset" />
          </mxGeometry>
        </mxCell>
      </root>
    </mxGraphModel>
  </diagram>
</mxfile>
